# xmcd CD database file
#
# Track frame offsets:
#	182
#	58515
#	97077
#	137857
#	176880
#	209730
#
# Disc length: 3308 seconds
#
# Revision: 0
# Processed by: cddbd v1.5.1PL0 Copyright (c) Steve Scherf et al.
# Submitted via: CDex 1.51
#
DISCID=5f0cea06
DTITLE=Back To The Bible - The Twelve Voices Of Christmas - Disc 1
DYEAR=1900
DGENRE=Christmas
TTITLE0=Gabriel
TTITLE1=Zacharias
TTITLE2=Elizabeth
TTITLE3=John
TTITLE4=Mary
TTITLE5=Joseph
EXTD=
EXTT0=
EXTT1=
EXTT2=
EXTT3=
EXTT4=
EXTT5=
PLAYORDER=
